<?xml version="1.0" encoding="utf-8"?>
<!-- Generator: Adobe Illustrator 25.4.1, SVG Export Plug-In . SVG Version: 6.00 Build 0)  -->
<svg version="1.1" id="Camada_1" xmlns="http://www.w3.org/2000/svg" xmlns:xlink="http://www.w3.org/1999/xlink" x="0px" y="0px"
	 viewBox="0 0 512 512" style="enable-background:new 0 0 512 512;" xml:space="preserve">
<style type="text/css">
	.st0{fill:#BD1C24;}
</style>
<path class="st0" d="M362.7,85.4V42.7C362.7,19.1,343.6,0,320,0H192c-23.6,0-42.7,19.1-42.7,42.7v42.7H50.6c-4.4,0-8,3.6-8,8v26.7
	c0,4.4,3.6,8,8,8h34.7V448c0,35.3,28.7,64,64,64h213.4c35.3,0,64-28.7,64-64V128.1h34.7c4.4,0,8-3.6,8-8l-0.5-26.8
	c-0.1-4.4-3.6-7.9-8-7.9H362.7z M312,42.7c4.4,0,8,3.6,8,8v34.7H192V50.7c0-4.4,3.6-8,8-8H312z M384,448c0,11.8-9.5,21.3-21.3,21.3
	H149.3c-11.8,0-21.3-9.5-21.3-21.3V128.1h256V448L384,448z"/>
<path class="st0" d="M200,213.4h26.7c4.4,0,8,3.6,8,8v154.7c0,4.4-3.6,8-8,8H200c-4.4,0-8-3.6-8-8V221.4
	C192,217,195.6,213.4,200,213.4z"/>
<path class="st0" d="M285.3,213.4H312c4.4,0,8,3.6,8,8v154.7c0,4.4-3.6,8-8,8h-26.7c-4.4,0-8-3.6-8-8V221.4
	C277.3,217,280.9,213.4,285.3,213.4z"/>
</svg>
